# xmcd
#
# Track frame offsets: 
#        150
#        32810
#        60558
#        101015
#        110210
#        140530
#        166853
#        181045
#        184893
#
# Disc length: 2767 seconds
#
# Revision: 1
# Processed by: cddbd v1.5.2PL0 Copyright (c) Steve Scherf et al.
# Submitted via: ExactAudioCopy v1.0b3
#
DISCID=790acd09
DTITLE=Albert King - Rainin' in California
DYEAR=1998
DGENRE=Blues
TTITLE0=King's Groove
TTITLE1=I Wonder Why
TTITLE2=The Sky Is Crying
TTITLE3=Albert's Stomp
TTITLE4=I'll Play The Blues For You
TTITLE5=Cold Women With Warm Hearts
TTITLE6=Kansas City
TTITLE7=Tighten Up
TTITLE8=Rainin' In California
EXTD=
EXTT0=
EXTT1=
EXTT2=
EXTT3=
EXTT4=
EXTT5=
EXTT6=
EXTT7=
EXTT8=
PLAYORDER=
